<?xml version="1.0" standalone="no"?>
<!DOCTYPE svg PUBLIC "-//W3C//DTD SVG 20010904//EN"
 "http://www.w3.org/TR/2001/REC-SVG-20010904/DTD/svg10.dtd">
<svg version="1.0" xmlns="http://www.w3.org/2000/svg"
 width="700.000000pt" height="700.000000pt" viewBox="0 0 700.000000 700.000000"
 preserveAspectRatio="xMidYMid meet">
<metadata>
Created by potrace 1.11, written by Peter Selinger 2001-2013
</metadata>
<g transform="translate(0.000000,700.000000) scale(0.100000,-0.100000)"
fill="#000000" stroke="none">
<path d="M5560 6887 c-491 -219 -974 -545 -1392 -938 -70 -66 -127 -123 -125
-128 1 -4 -51 -65 -115 -136 -196 -217 -355 -429 -483 -645 -21 -36 -48 -74
-60 -85 -42 -41 -195 -363 -265 -561 -65 -183 -129 -477 -146 -666 -4 -43 -9
-78 -11 -78 -2 0 -41 35 -86 79 -45 43 -104 98 -132 121 -27 24 -61 56 -75 71
-34 36 -229 163 -360 234 -127 69 -211 109 -395 185 -384 159 -847 262 -1291
286 l-121 7 38 -79 c58 -119 113 -345 145 -599 4 -33 8 -285 9 -560 1 -456 3
-513 23 -655 70 -503 197 -885 391 -1183 200 -305 571 -616 980 -820 302 -151
592 -239 881 -267 63 -6 144 -15 180 -19 l65 -7 -60 -60 c-102 -101 -239 -157
-416 -170 -85 -7 -110 -16 -71 -28 48 -15 359 -36 541 -36 889 1 1648 316
2276 945 526 526 896 1220 981 1842 24 175 24 553 1 753 -67 565 -245 1157
-525 1745 -50 105 -108 235 -130 290 -144 365 -245 841 -229 1088 3 48 5 87 4
86 -1 0 -13 -5 -27 -12z m15 -390 c47 -326 153 -673 302 -992 179 -383 254
-568 348 -857 100 -311 174 -642 212 -948 26 -217 24 -607 -5 -796 -112 -729
-623 -1557 -1277 -2067 -354 -276 -779 -480 -1205 -578 -237 -54 -383 -70
-655 -74 -237 -4 -245 -3 -160 9 267 39 653 170 986 337 580 289 1016 660
1331 1134 107 160 242 424 303 588 344 938 246 2214 -237 3083 -49 90 -206
336 -225 354 -3 3 -2 -6 1 -20 4 -14 -5 -4 -20 22 -15 27 -29 46 -32 44 -2 -3
8 -54 22 -115 53 -226 101 -553 132 -896 25 -274 26 -922 1 -1165 -69 -674
-204 -1170 -453 -1660 -190 -375 -432 -686 -745 -959 -51 -44 -97 -81 -102
-81 -5 0 -42 33 -81 73 -50 50 -84 96 -113 152 -71 140 -101 257 -203 790
-114 597 -186 859 -306 1124 l-34 74 -11 236 c-30 636 43 1050 266 1518 266
559 691 1039 1394 1581 260 200 403 316 441 357 l35 38 -60 -33 c-33 -19 -94
-54 -135 -78 l-75 -44 35 37 c22 24 82 61 165 102 l130 64 7 -121 c4 -67 14
-172 23 -233z m-185 -1027 c2 21 61 -108 115 -250 195 -514 289 -1215 245
-1840 -69 -980 -352 -1689 -897 -2246 -136 -140 -289 -269 -349 -295 -61 -28
-170 -43 -238 -35 l-59 8 54 45 c86 73 330 323 325 332 -3 4 15 32 40 62 468
547 738 1234 841 2134 24 210 28 1058 7 1325 -20 246 -75 631 -110 775 -4 15
-1 14 10 -5 10 -16 16 -20 16 -10z m-4782 -880 c41 -24 139 -55 336 -106 501
-130 715 -204 997 -343 484 -240 834 -566 1053 -982 146 -277 396 -1000 566
-1629 72 -269 144 -434 234 -535 l35 -40 -51 134 c-45 122 -129 422 -128 461
1 8 17 -37 36 -100 75 -244 126 -342 252 -485 53 -60 100 -102 141 -126 l62
-37 -38 -5 c-66 -8 -376 12 -499 33 -254 44 -444 104 -669 215 -251 123 -468
278 -676 485 -280 279 -489 578 -694 995 -204 414 -372 909 -445 1316 -11 62
-22 115 -25 117 -3 3 -5 -14 -5 -38 0 -24 -3 -40 -7 -36 -8 8 -47 -183 -63
-305 -13 -107 -13 -402 0 -527 58 -530 262 -1060 571 -1477 364 -493 899 -800
1582 -907 124 -19 181 -22 447 -22 290 -1 417 9 560 40 l25 5 -26 -15 c-89
-51 -410 -140 -626 -173 -131 -19 -478 -22 -603 -4 -570 80 -1094 331 -1519
727 -378 351 -584 809 -684 1514 -19 141 -21 200 -23 660 -1 534 -6 605 -55
845 -18 84 -75 273 -104 338 -8 20 14 24 43 7z m155 -7 c-13 -2 -33 -2 -45 0
-13 2 -3 4 22 4 25 0 35 -2 23 -4z m2454 -635 c-3 -7 -5 -2 -5 12 0 14 2 19 5
13 2 -7 2 -19 0 -25z m-10 -90 c-3 -7 -5 -2 -5 12 0 14 2 19 5 13 2 -7 2 -19
0 -25z m-10 -165 c-2 -16 -4 -5 -4 22 0 28 2 40 4 28 2 -13 2 -35 0 -50z
m-1967 -528 c29 -88 58 -165 66 -171 7 -6 28 -53 47 -105 324 -893 836 -1538
1483 -1870 65 -33 122 -65 128 -73 14 -17 145 -71 271 -111 93 -30 100 -34
103 -60 2 -15 1 -38 -2 -51 -8 -31 -24 -31 -178 2 -336 70 -672 227 -949 444
-531 416 -984 1249 -1105 2030 -24 160 -36 387 -22 448 l12 54 47 -189 c26
-104 70 -260 99 -348z m1967 298 c-2 -16 -4 -3 -4 27 0 30 2 43 4 28 2 -16 2
-40 0 -55z m450 -1885 c-3 -8 -6 -5 -6 6 -1 11 2 17 5 13 3 -3 4 -12 1 -19z
m-159 -827 c3 -9 7 -10 11 -2 5 8 31 7 92 -4 46 -8 127 -18 179 -21 113 -8
134 -15 99 -35 -18 -10 -68 -14 -194 -14 -212 1 -325 11 -325 31 0 8 4 14 9
14 5 0 12 15 15 34 l6 33 52 -12 c28 -6 54 -17 56 -24z m857 -2 c-49 -24 -61
-26 -63 -14 -2 9 -15 15 -34 15 -53 0 -25 10 53 19 109 12 109 12 44 -20z
m-98 -45 c-16 -9 -31 -13 -34 -10 -3 3 5 10 18 15 37 15 47 12 16 -5z m-144
-1 c-7 -2 -19 -2 -25 0 -7 3 -2 5 12 5 14 0 19 -2 13 -5z m207 -8 c0 -15 -285
-168 -450 -242 -219 -97 -582 -215 -602 -195 -5 5 33 25 89 47 54 21 175 78
270 125 94 48 195 93 225 100 76 18 290 93 383 134 93 40 85 37 85 31z m-965
-284 c-60 -26 -130 -55 -154 -65 l-44 -17 53 58 c52 57 54 58 119 64 143 12
144 12 26 -40z m-35 -91 c-8 -5 -19 -10 -25 -10 -5 0 -3 5 5 10 8 5 20 10 25
10 6 0 3 -5 -5 -10z m-70 -24 c0 -2 -43 -19 -95 -36 -55 -18 -95 -37 -95 -45
0 -29 -27 -36 -120 -29 l-92 7 78 24 c44 13 120 33 169 43 50 10 101 23 115
29 28 11 40 13 40 7z"/>
</g>
</svg>
