<svg xmlns="http://www.w3.org/2000/svg" width="891" height="1005" viewBox="0 0 891 1005" version="1.1">
	<path d="M 743.991 6.295 C 695.327 28.688, 641.507 62.046, 597 97.398 C 570.254 118.643, 531.463 153.806, 527.952 159.989 C 527.101 161.488, 520.039 169.641, 512.258 178.107 C 486.921 205.677, 470.082 226.992, 451.500 255.016 C 445.450 264.140, 438.475 275.268, 436 279.745 C 433.525 284.222, 430.808 288.068, 429.962 288.293 C 429.116 288.518, 425.200 294.732, 421.261 302.101 C 392.438 356.016, 375.741 407.887, 368.855 464.906 L 366.569 483.834 353.462 471.167 C 346.253 464.200, 336.965 455.800, 332.823 452.500 C 328.681 449.200, 324.636 445.374, 323.834 443.997 C 321.960 440.779, 296.664 423.629, 278.027 412.942 C 244.575 393.758, 199.540 374.673, 159.500 362.713 C 111.577 348.399, 48.588 338, 9.800 338 C 4.960 338, 1 338.268, 1 338.596 C 1 338.923, 1.958 340.536, 3.128 342.180 C 8.523 349.756, 16.528 373.637, 21.377 396.618 C 28.155 428.740, 30.638 457.986, 29.389 491 C 28.016 527.291, 28.477 574.659, 30.405 595.500 C 38.917 687.483, 63.661 760.951, 103.275 811.857 C 112.729 824.006, 138.304 850.153, 151.500 861.161 C 179.086 884.173, 206.286 902.044, 237.189 917.463 C 286.806 942.218, 337.539 955.856, 391 958.809 L 404.500 959.555 395.972 968.027 C 379.166 984.723, 359.955 992.594, 333.250 993.723 C 320.384 994.267, 320 994.348, 320 996.511 C 320 998.560, 320.702 998.828, 328.750 999.853 C 470.857 1017.951, 596.428 984.668, 700.447 901.335 C 722.313 883.817, 751.154 855.708, 770.562 833 C 816.719 778.994, 853.230 714.634, 873.809 651 C 883.106 622.251, 887.572 598.204, 889.966 564 C 896.821 466.039, 866.693 336.248, 809.973 219.384 C 804.932 208.998, 798.651 195.516, 796.016 189.425 C 776.216 143.650, 761.102 85.912, 756.957 40.209 C 755.761 27.024, 756.049 6.111, 757.473 2.750 C 758.646 -0.019, 756.467 0.554, 743.991 6.295 M 724.399 213 C 725.977 220.996, 730.156 245.403, 731.933 257 C 738.032 296.813, 744.050 360.718, 741.831 362.100 C 741.215 362.483, 741.298 370.892, 742.060 385.387 C 743.413 411.121, 742.818 482.015, 741.082 502 C 732.845 596.818, 714.474 669.553, 681.600 737.500 C 663.632 774.639, 639.294 812.184, 615.793 839.017 C 611.690 843.702, 608.052 848.656, 607.708 850.026 C 606.874 853.352, 579.163 881.983, 564.670 894.495 C 551.135 906.179, 551.138 906.187, 567.856 906.068 C 585.515 905.943, 595.792 902.715, 606.793 893.841 C 656.892 853.426, 696.707 804.417, 724.563 748.875 C 778.587 641.153, 796.039 480.589, 768.894 341 C 761.941 305.242, 749.518 263.417, 737.262 234.500 C 731.855 221.742, 727.087 211.918, 728.405 216.250 C 729.286 219.146, 728.176 218.232, 725.977 214.250 C 724.389 211.375, 724.021 211.083, 724.399 213 M 86.547 482.216 C 84.847 484.201, 84.751 485.746, 85.348 501.565 C 86.188 523.825, 87.366 535.418, 91.052 557.711 C 101.955 623.648, 131.198 697.702, 169.750 757 C 224.862 841.772, 294.486 893.288, 383.361 915.057 C 393.534 917.549, 416.393 922, 419.016 922 C 419.432 922, 420.066 919.862, 420.424 917.250 C 420.783 914.637, 421.306 911.323, 421.588 909.883 C 422.081 907.366, 421.767 907.166, 413.300 904.587 C 392.520 898.258, 365 887.347, 365 885.436 C 365 884.799, 361.288 882.593, 356.750 880.534 C 352.212 878.474, 342.569 873.492, 335.321 869.462 C 261.723 828.543, 201.812 761.403, 155.994 668.500 C 143.915 644.008, 133.925 620.797, 126.082 599 C 123.212 591.025, 120.204 583.989, 119.397 583.364 C 116.372 581.022, 98.474 523.389, 91.614 493.900 C 88.427 480.199, 88.375 480.081, 86.547 482.216 M 532.052 920.947 C 531.115 921.539, 532.174 921.662, 535.052 921.294 C 537.498 920.981, 539.688 920.562, 539.917 920.362 C 540.855 919.547, 533.388 920.101, 532.052 920.947 M 551.500 928.968 C 536.922 935.280, 516.461 942.344, 500.720 946.498 C 492.031 948.791, 485.309 951.302, 479.720 954.343 C 463.909 962.945, 441.374 973.767, 426.250 980.020 C 412.460 985.722, 408.495 988, 412.362 988 C 414.492 988, 440.750 980.429, 454.277 975.914 C 478.996 967.665, 509.720 954.576, 531 943.230 C 543.399 936.619, 563 925.123, 563 924.463 C 563 924.208, 562.888 924.046, 562.750 924.103 C 562.612 924.159, 557.550 926.349, 551.500 928.968" stroke="none" fill="black" fill-rule="evenodd"/>
</svg>